<svg width="20" height="20" viewBox="0 0 20 20" fill="none" xmlns="http://www.w3.org/2000/svg">
<path d="M13 6C13 4.67392 12.4732 3.40215 11.5355 2.46447C10.5979 1.52678 9.32608 1 8 1C6.67392 1 5.40215 1.52678 4.46447 2.46447C3.52678 3.40215 3 4.67392 3 6C3 7.32608 3.52678 8.59785 4.46447 9.53553C5.40215 10.4732 6.67392 11 8 11C9.32608 11 10.5979 10.4732 11.5355 9.53553C12.4732 8.59785 13 7.32608 13 6Z" stroke="black" stroke-width="1.5" stroke-linecap="round" stroke-linejoin="round"/>
<path d="M1 18C0.999996 16.6095 1.41415 15.2504 2.18964 14.0962C2.96514 12.942 4.06684 12.0448 5.35424 11.5193C6.64164 10.9937 8.05641 10.8634 9.41813 11.1452C10.7799 11.4269 12.0268 12.1078 13 13.101M11 16.5C11 16.5 12.348 17.007 13 19C13 19 16.177 14 19 13" stroke="black" stroke-width="1.5" stroke-linecap="round" stroke-linejoin="round"/>
</svg>
