<svg width="20" height="20" viewBox="0 0 20 20" fill="none" xmlns="http://www.w3.org/2000/svg">
<path d="M13.5 6C13.5 4.67392 12.9732 3.40215 12.0355 2.46447C11.0979 1.52678 9.82608 1 8.5 1C7.17392 1 5.90215 1.52678 4.96447 2.46447C4.02678 3.40215 3.5 4.67392 3.5 6C3.5 7.32608 4.02678 8.59785 4.96447 9.53553C5.90215 10.4732 7.17392 11 8.5 11C9.82608 11 11.0979 10.4732 12.0355 9.53553C12.9732 8.59785 13.5 7.32608 13.5 6Z" stroke="black" stroke-width="1.5" stroke-linecap="round" stroke-linejoin="round"/>
<path d="M1.5 17.9998C1.49986 16.771 1.82319 15.5638 2.43751 14.4996C3.05183 13.4353 3.93549 12.5515 4.99964 11.9371C6.0638 11.3226 7.27097 10.9991 8.49979 10.999C9.72862 10.999 10.9358 11.3224 12 11.9368M14.5 12.8458C14.5 11.8258 15.395 10.9998 16.5 10.9998C17.605 10.9998 18.5 11.8268 18.5 12.8458C18.5 13.2138 18.384 13.5558 18.183 13.8438C17.585 14.7008 16.5 15.0188 16.5 16.0378V16.4998M16.49 18.9998H16.5" stroke="black" stroke-width="1.5" stroke-linecap="round" stroke-linejoin="round"/>
</svg>
