<svg width="17" height="17" viewBox="0 0 17 17" fill="none" xmlns="http://www.w3.org/2000/svg">
<path d="M3.6 0C2.64522 0 1.72955 0.379285 1.05442 1.05442C0.379285 1.72955 0 2.64522 0 3.6V13.2C0 14.1548 0.379285 15.0705 1.05442 15.7456C1.72955 16.4207 2.64522 16.8 3.6 16.8H13.2C14.1548 16.8 15.0705 16.4207 15.7456 15.7456C16.4207 15.0705 16.8 14.1548 16.8 13.2V3.6C16.8 2.64522 16.4207 1.72955 15.7456 1.05442C15.0705 0.379285 14.1548 0 13.2 0H3.6ZM1.2 3.6C1.2 2.96348 1.45286 2.35303 1.90294 1.90294C2.35303 1.45286 2.96348 1.2 3.6 1.2H13.2C13.8365 1.2 14.447 1.45286 14.8971 1.90294C15.3471 2.35303 15.6 2.96348 15.6 3.6V13.2C15.6 13.8365 15.3471 14.447 14.8971 14.8971C14.447 15.3471 13.8365 15.6 13.2 15.6H3.6C2.96348 15.6 2.35303 15.3471 1.90294 14.8971C1.45286 14.447 1.2 13.8365 1.2 13.2V3.6ZM13.0248 5.8248C13.1375 5.71214 13.2008 5.55933 13.2008 5.4C13.2008 5.24067 13.1375 5.08786 13.0248 4.9752C12.9121 4.86254 12.7593 4.79924 12.6 4.79924C12.4407 4.79924 12.2879 4.86254 12.1752 4.9752L6.6 10.5516L4.6248 8.5752C4.51214 8.46254 4.35933 8.39924 4.2 8.39924C4.04067 8.39924 3.88786 8.46254 3.7752 8.5752C3.66254 8.68786 3.59924 8.84067 3.59924 9C3.59924 9.15933 3.66254 9.31214 3.7752 9.4248L6.1752 11.8248C6.23093 11.8807 6.29715 11.925 6.37004 11.9553C6.44293 11.9855 6.52108 12.0011 6.6 12.0011C6.67892 12.0011 6.75707 11.9855 6.82996 11.9553C6.90285 11.925 6.96906 11.8807 7.0248 11.8248L13.0248 5.8248Z" fill="black"/>
</svg>
