<svg width="22" height="11" viewBox="0 0 22 11" fill="none" xmlns="http://www.w3.org/2000/svg">
<path d="M1.44042 0.455417C1.36218 0.272417 1.21445 0.127993 1.02972 0.0539164C0.845 -0.0201605 0.638416 -0.0178223 0.455417 0.0604166C0.272417 0.138655 0.127993 0.286386 0.0539164 0.471109C-0.0201605 0.655833 -0.0178223 0.862417 0.0604165 1.04542L1.44042 0.455417ZM7.79142 7.48842C7.84739 7.40591 7.88635 7.31307 7.90602 7.21533C7.92569 7.11759 7.92567 7.0169 7.90597 6.91917C7.88627 6.82143 7.84728 6.72861 7.79128 6.64612C7.73528 6.56363 7.6634 6.49313 7.57983 6.43875C7.49627 6.38437 7.4027 6.3472 7.3046 6.3294C7.2065 6.31161 7.10583 6.31356 7.00849 6.33513C6.91115 6.3567 6.81909 6.39746 6.73769 6.45503C6.65629 6.5126 6.58718 6.58582 6.53442 6.67042L7.79142 7.48842ZM5.12142 8.84142C5.06771 8.92402 5.03079 9.01639 5.01278 9.11326C4.99477 9.21013 4.99601 9.30959 5.01644 9.40598C5.0577 9.60064 5.1746 9.77094 5.34142 9.87942C5.50824 9.98789 5.71132 10.0257 5.90598 9.98439C6.00237 9.96396 6.09379 9.92475 6.17502 9.86899C6.25625 9.81323 6.32571 9.74202 6.37942 9.65942L5.12142 8.84142ZM21.4404 1.04542C21.5103 0.864252 21.5071 0.663066 21.4316 0.484171C21.3562 0.305277 21.2143 0.162617 21.0358 0.0861973C20.8573 0.00977723 20.6562 0.00555237 20.4746 0.0744118C20.2931 0.143271 20.1453 0.279848 20.0624 0.455417L21.4404 1.04542ZM18.7204 6.91042C18.7891 6.9841 18.8719 7.04321 18.9639 7.0842C19.0559 7.12519 19.1552 7.14723 19.2559 7.14901C19.3566 7.15079 19.4566 7.13226 19.55 7.09454C19.6434 7.05682 19.7282 7.00067 19.7995 6.92945C19.8707 6.85824 19.9268 6.7734 19.9645 6.68001C20.0023 6.58663 20.0208 6.4866 20.019 6.38589C20.0172 6.28519 19.9952 6.18588 19.9542 6.09388C19.9132 6.00188 19.8541 5.91908 19.7804 5.85042L18.7204 6.91042ZM10.0004 10.2504C10.0004 10.4493 10.0794 10.6401 10.2201 10.7807C10.3607 10.9214 10.5515 11.0004 10.7504 11.0004C10.9493 11.0004 11.1401 10.9214 11.2807 10.7807C11.4214 10.6401 11.5004 10.4493 11.5004 10.2504H10.0004ZM15.1214 9.65942C15.2299 9.82624 15.4002 9.94314 15.5949 9.98439C15.7895 10.0257 15.9926 9.98789 16.1594 9.87942C16.3262 9.77094 16.4431 9.60064 16.4844 9.40598C16.5257 9.21132 16.4879 9.00824 16.3794 8.84142L15.1214 9.65942ZM4.28142 5.40942C4.41377 5.26712 4.48571 5.079 4.4821 4.8847C4.47849 4.6904 4.39961 4.50509 4.26206 4.36781C4.12452 4.23052 3.93906 4.15198 3.74475 4.14874C3.55045 4.1455 3.36247 4.2178 3.22042 4.35042L4.28142 5.40942ZM1.72042 5.84942C1.58794 5.99159 1.51581 6.17964 1.51924 6.37394C1.52267 6.56824 1.60138 6.75363 1.73879 6.89104C1.87621 7.02845 2.06159 7.10716 2.25589 7.11059C2.4502 7.11402 2.63824 7.0419 2.78042 6.90942L1.72042 5.84942ZM10.7504 7.00042C7.52642 7.00042 5.21142 5.39542 3.67542 3.74042C3.02993 3.04202 2.45947 2.27783 1.97342 1.46042C1.79039 1.1528 1.62122 0.837154 1.46642 0.514417L1.44442 0.465417L1.44042 0.455417L1.43942 0.454417L0.750417 0.750417L0.0604165 1.04542L0.0614166 1.04642L0.0624166 1.04942L0.0654167 1.05542L0.105417 1.14342C0.131417 1.20208 0.170417 1.28308 0.222417 1.38642C0.325417 1.59242 0.478417 1.88242 0.684417 2.22742C1.09442 2.91742 1.71942 3.83742 2.57542 4.76042C4.29042 6.60542 6.97442 8.50042 10.7504 8.50042V7.00042ZM14.0634 6.38142C13.0934 6.76442 11.9924 7.00042 10.7504 7.00042V8.50042C12.1884 8.50042 13.4754 8.22442 14.6124 7.77742L14.0634 6.38142ZM6.53442 6.67042L5.12142 8.84142L6.37942 9.65842L7.79142 7.48842L6.53442 6.67042ZM20.7504 0.750417L20.0604 0.454417H20.0614V0.456417L20.0544 0.469417L20.0264 0.531417C19.8347 0.930255 19.621 1.31818 19.3864 1.69342C18.7857 2.66154 18.0632 3.54847 17.2364 4.33242L18.2634 5.42642C19.5511 4.20509 20.6086 2.76212 21.3854 1.16642L21.4244 1.08142L21.4344 1.05742L21.4384 1.05042V1.04742L21.4394 1.04642L20.7504 0.750417ZM17.2364 4.33242C16.3764 5.13842 15.3244 5.88442 14.0634 6.38142L14.6124 7.77742C16.0854 7.19742 17.2974 6.33342 18.2634 5.42642L17.2364 4.33242ZM17.2204 5.40942L18.7204 6.91042L19.7804 5.84942L18.2804 4.34942L17.2204 5.40942ZM10.0004 7.75042V10.2504H11.5004V7.75042H10.0004ZM13.7094 7.48842L15.1214 9.65942L16.3794 8.84142L14.9664 6.67042L13.7094 7.48842ZM3.21942 4.34842L1.71942 5.84842L2.78042 6.90942L4.28042 5.41042L3.21942 4.34842Z" fill="black"/>
</svg>
