<svg width="29" height="28" viewBox="0 0 29 28" fill="none" xmlns="http://www.w3.org/2000/svg">
<path fill-rule="evenodd" clip-rule="evenodd" d="M0.0869141 12.2514C0.0869141 5.25079 6.79778 0 14.5003 0C22.2028 0 28.9137 5.25079 28.9137 12.2514C28.9137 19.2519 22.2028 24.5027 14.5003 24.5027C13.7421 24.5027 12.9994 24.4547 12.272 24.3586L8.0921 27.1433C7.85493 27.3012 7.57625 27.3854 7.29129 27.385C7.00632 27.3846 6.72786 27.2998 6.49109 27.1412C6.25431 26.9827 6.06986 26.7575 5.96103 26.4941C5.8522 26.2307 5.82388 25.941 5.87965 25.6616L6.52105 22.4604C2.72168 20.3084 0.0869141 16.5999 0.0869141 12.2514ZM11.6176 5.76535C11.9999 5.76535 12.3665 5.91721 12.6368 6.18751C12.9071 6.45781 13.059 6.82442 13.059 7.20669V17.2961C13.059 17.6783 12.9071 18.0449 12.6368 18.3152C12.3665 18.5855 11.9999 18.7374 11.6176 18.7374C11.2353 18.7374 10.8687 18.5855 10.5984 18.3152C10.3281 18.0449 10.1763 17.6783 10.1763 17.2961V7.20669C10.1763 6.82442 10.3281 6.45781 10.5984 6.18751C10.8687 5.91721 11.2353 5.76535 11.6176 5.76535ZM13.059 13.6927C13.059 13.3742 13.1642 13.0556 13.376 12.7919L16.2587 9.18853C16.5019 8.90375 16.8464 8.72479 17.2192 8.68955C17.592 8.6543 17.9639 8.76553 18.2561 8.99969C18.5483 9.23385 18.738 9.57255 18.7848 9.94408C18.8317 10.3156 18.7321 10.6908 18.5072 10.9902L16.3452 13.6927L18.5072 16.3952C18.6326 16.542 18.7272 16.7126 18.7854 16.8966C18.8436 17.0807 18.8642 17.2746 18.846 17.4668C18.8279 17.659 18.7713 17.8456 18.6796 18.0156C18.5879 18.1855 18.463 18.3352 18.3124 18.456C18.1617 18.5767 17.9883 18.6659 17.8025 18.7183C17.6167 18.7708 17.4223 18.7853 17.2307 18.7612C17.0392 18.737 16.8544 18.6746 16.6874 18.5777C16.5205 18.4807 16.3747 18.3512 16.2587 18.1969L13.376 14.5935C13.171 14.338 13.0592 14.0203 13.059 13.6927Z" fill="#333333"/>
</svg>
