<svg width="24" height="24" viewBox="0 0 24 24" fill="none" xmlns="http://www.w3.org/2000/svg">
<path d="M7.22985 18.25C6.1701 18.2535 5.15228 17.8363 4.39985 17.09C3.63599 16.2785 3.22326 15.1983 3.25135 14.0842C3.27943 12.97 3.74607 11.912 4.54985 11.14L8.30985 7.35C9.12714 6.50634 10.2454 6.0209 11.4199 6C11.9474 6.00352 12.469 6.11135 12.9547 6.3173C13.4404 6.52325 13.8806 6.82324 14.2499 7.2C15.0241 8.01629 15.4431 9.10627 15.415 10.231C15.3869 11.3557 14.9139 12.4234 14.0999 13.2L12.8399 14.46C12.7712 14.5337 12.6884 14.5928 12.5964 14.6338C12.5044 14.6748 12.4051 14.6968 12.3044 14.6986C12.2037 14.7004 12.1036 14.6818 12.0103 14.6441C11.9169 14.6064 11.832 14.5503 11.7608 14.479C11.6896 14.4078 11.6335 14.323 11.5957 14.2296C11.558 14.1362 11.5395 14.0362 11.5413 13.9355C11.543 13.8348 11.5651 13.7355 11.6061 13.6435C11.6471 13.5515 11.7062 13.4687 11.7799 13.4L12.9999 12.1C13.5246 11.6076 13.8336 10.9279 13.8598 10.2088C13.8861 9.4897 13.6273 8.78933 13.1399 8.26C12.607 7.7953 11.9165 7.55197 11.21 7.57986C10.5035 7.60774 9.83446 7.90474 9.33985 8.41L5.60985 12.19C5.09498 12.6812 4.79143 13.3535 4.76343 14.0646C4.73544 14.7757 4.98519 15.4698 5.45985 16C5.72073 16.2578 6.03514 16.4551 6.38077 16.5778C6.72641 16.7005 7.09482 16.7456 7.45985 16.71C7.55711 16.7004 7.65532 16.7101 7.7488 16.7386C7.84228 16.7671 7.92918 16.8139 8.00449 16.8762C8.07981 16.9385 8.14203 17.0151 8.18758 17.1015C8.23312 17.188 8.26109 17.2827 8.26985 17.38C8.28941 17.5775 8.22987 17.7747 8.10429 17.9284C7.9787 18.0821 7.79731 18.1798 7.59985 18.2L7.22985 18.25Z" fill="#333333"/>
<path d="M12.5805 17.9996C12.0529 17.9961 11.5313 17.8883 11.0456 17.6823C10.5599 17.4764 10.1197 17.1764 9.75046 16.7996C8.9762 15.9834 8.5572 14.8934 8.58531 13.7686C8.61343 12.6439 9.08638 11.5762 9.90046 10.7996L11.1605 9.53964C11.2291 9.46595 11.3119 9.40685 11.4039 9.36586C11.4959 9.32486 11.5952 9.30282 11.6959 9.30105C11.7966 9.29927 11.8967 9.31779 11.9901 9.35551C12.0834 9.39324 12.1683 9.44938 12.2395 9.5206C12.3107 9.59182 12.3669 9.67665 12.4046 9.77004C12.4423 9.86343 12.4608 9.96346 12.4591 10.0642C12.4573 10.1649 12.4352 10.2642 12.3942 10.3562C12.3533 10.4482 12.2941 10.531 12.2205 10.5996L11.0005 11.8996C10.4758 12.3921 10.1667 13.0717 10.1405 13.7908C10.1143 14.5099 10.373 15.2103 10.8605 15.7396C11.3934 16.2043 12.0838 16.4477 12.7903 16.4198C13.4968 16.3919 14.1659 16.0949 14.6605 15.5896L18.4305 11.8096C18.9398 11.3131 19.236 10.6379 19.2565 9.9269C19.277 9.21589 19.0203 8.52476 18.5405 7.99964C18.2796 7.74183 17.9652 7.54458 17.6195 7.42188C17.2739 7.29918 16.9055 7.25403 16.5405 7.28964C16.4432 7.29928 16.345 7.28955 16.2515 7.26103C16.158 7.23251 16.0711 7.18575 15.9958 7.12346C15.9205 7.06116 15.8583 6.98457 15.8127 6.89809C15.7672 6.81162 15.7392 6.71698 15.7305 6.61964C15.7109 6.42212 15.7704 6.2249 15.896 6.0712C16.0216 5.9175 16.203 5.81984 16.4005 5.79964C16.9826 5.7393 17.5708 5.80743 18.1237 5.99922C18.6767 6.19101 19.1808 6.50179 19.6005 6.90964C20.3643 7.72116 20.7771 8.80136 20.749 9.91548C20.7209 11.0296 20.2542 12.0876 19.4505 12.8596L15.6905 16.6496C14.8732 17.4933 13.7549 17.9787 12.5805 17.9996Z" fill="#333333"/>
</svg>
