<svg width="30" height="30" viewBox="0 0 30 30" fill="none" xmlns="http://www.w3.org/2000/svg">
<g filter="url(#filter0_d_371_3480)">
<path d="M22.3955 16.1596C22.7985 15.2478 23 14.3547 23 13.4805C23 11.3117 22.2722 9.5229 20.8165 8.11415C19.3602 6.70472 17.5882 6 15.5005 6C13.4129 6 11.6405 6.70472 10.1835 8.11415C8.72783 9.5229 8.00001 11.3117 8.00001 13.4805C7.9986 14.3547 8.20011 15.2508 8.60453 16.1688C9.00895 17.0868 9.52611 17.9867 10.156 18.8684C10.7859 19.7502 11.4869 20.6022 12.2591 21.4245C13.0321 22.2474 13.7944 22.9942 14.5462 23.6647C14.6857 23.783 14.8379 23.8684 15.0028 23.921C15.1683 23.973 15.3339 23.9993 15.4995 24C15.665 24.0007 15.8338 23.9713 16.0057 23.9118C16.1776 23.8523 16.3333 23.7635 16.4728 23.6452C17.226 22.9747 17.9887 22.2314 18.7609 21.4152C19.5332 20.5991 20.231 19.7467 20.8546 18.8582C21.4788 17.9703 21.9925 17.0707 22.3955 16.1596Z" fill="#5EA8E0"/>
</g>
<defs>
<filter id="filter0_d_371_3480" x="6" y="6" width="19" height="22" filterUnits="userSpaceOnUse" color-interpolation-filters="sRGB">
<feFlood flood-opacity="0" result="BackgroundImageFix"/>
<feColorMatrix in="SourceAlpha" type="matrix" values="0 0 0 0 0 0 0 0 0 0 0 0 0 0 0 0 0 0 127 0" result="hardAlpha"/>
<feOffset dy="2"/>
<feGaussianBlur stdDeviation="1"/>
<feComposite in2="hardAlpha" operator="out"/>
<feColorMatrix type="matrix" values="0 0 0 0 0 0 0 0 0 0 0 0 0 0 0 0 0 0 0.25 0"/>
<feBlend mode="normal" in2="BackgroundImageFix" result="effect1_dropShadow_371_3480"/>
<feBlend mode="normal" in="SourceGraphic" in2="effect1_dropShadow_371_3480" result="shape"/>
</filter>
</defs>
</svg>
