<svg width="24" height="24" viewBox="0 0 24 24" fill="none" xmlns="http://www.w3.org/2000/svg">
<path d="M18.524 12.909C18.9053 12.0197 19.096 11.1487 19.096 10.296C19.096 8.18067 18.4073 6.436 17.03 5.062C15.652 3.68733 13.9753 3 12 3C10.0246 3 8.34763 3.68733 6.96896 5.062C5.59163 6.436 4.90296 8.18067 4.90296 10.296C4.90163 11.1487 5.09229 12.0227 5.47496 12.918C5.85763 13.8133 6.34696 14.691 6.94296 15.551C7.53896 16.411 8.20229 17.242 8.93296 18.044C9.66429 18.8467 10.3856 19.575 11.097 20.229C11.229 20.3443 11.373 20.4277 11.529 20.479C11.6856 20.5297 11.8423 20.5553 11.999 20.556C12.1556 20.5567 12.3153 20.528 12.478 20.47C12.6406 20.412 12.788 20.3253 12.92 20.21C13.6326 19.556 14.3543 18.831 15.085 18.035C15.8156 17.239 16.476 16.4077 17.066 15.541C17.6566 14.675 18.1426 13.7977 18.524 12.909Z" fill="#5EA8E0"/>
</svg>
